<?xml version="1.0" standalone="no"?><!DOCTYPE svg PUBLIC "-//W3C//DTD SVG 1.1//EN" "http://www.w3.org/Graphics/SVG/1.1/DTD/svg11.dtd"><svg t="1590979690476" class="icon" viewBox="0 0 1024 1024" version="1.1" xmlns="http://www.w3.org/2000/svg" p-id="7046" xmlns:xlink="http://www.w3.org/1999/xlink" width="200" height="200"><defs><style type="text/css"></style></defs><path d="M758.488 511.053c0-9.247-4.369-17.476-11.14-22.792L340.732 81.574c-5.243-5.243-12.525-8.447-20.535-8.447-16.02 0-28.982 12.962-28.982 28.982 0 8.01 3.204 15.291 8.52 20.534l388.556 388.629-388.556 388.555c-5.243 5.243-8.52 12.525-8.52 20.535 0 16.02 12.962 28.982 28.982 28.982 8.01 0 15.219-3.277 20.535-8.52L751.06 530.496h-0.146c4.733-5.098 7.573-11.942 7.573-19.443z" p-id="7047" fill="#ffffff"></path></svg>